<svg width="100" height="108" viewBox="0 0 100 108" fill="none" xmlns="http://www.w3.org/2000/svg">
<path d="M95 54C95 77.1626 77.4961 96.2431 54.9976 98.7261C54.9825 88.0814 54.8772 79.5885 54.0013 73.0075C53.1188 66.3764 51.3558 60.7847 47.2855 56.7145C43.2153 52.6442 37.6236 50.8812 30.9925 49.9987C24.4115 49.1228 15.9186 49.0175 5.27394 49.0024C7.75692 26.5039 26.8374 9 50 9C74.8528 9 95 29.1472 95 54Z" stroke="url(#paint0_linear_4_20)" stroke-width="10"/>
<path d="M50.7438 28.456C56.0718 28.456 60.7278 29.512 64.7118 31.624C68.6958 33.736 71.7678 36.712 73.9278 40.552C76.1358 44.344 77.2398 48.736 77.2398 53.728C77.2398 58.672 76.1358 63.064 73.9278 66.904C71.7678 70.744 68.6718 73.72 64.6398 75.832C60.6558 77.944 56.0238 79 50.7438 79H31.8078V28.456H50.7438ZM49.9518 68.344C54.6078 68.344 58.2318 67.072 60.8238 64.528C63.4158 61.984 64.7118 58.384 64.7118 53.728C64.7118 49.072 63.4158 45.448 60.8238 42.856C58.2318 40.264 54.6078 38.968 49.9518 38.968H44.1198V68.344H49.9518Z" fill="url(#paint1_linear_4_20)"/>
<path d="M50.7438 28.456C56.0718 28.456 60.7278 29.512 64.7118 31.624C68.6958 33.736 71.7678 36.712 73.9278 40.552C76.1358 44.344 77.2398 48.736 77.2398 53.728C77.2398 58.672 76.1358 63.064 73.9278 66.904C71.7678 70.744 68.6718 73.72 64.6398 75.832C60.6558 77.944 56.0238 79 50.7438 79H31.8078V28.456H50.7438ZM49.9518 68.344C54.6078 68.344 58.2318 67.072 60.8238 64.528C63.4158 61.984 64.7118 58.384 64.7118 53.728C64.7118 49.072 63.4158 45.448 60.8238 42.856C58.2318 40.264 54.6078 38.968 49.9518 38.968H44.1198V68.344H49.9518Z" fill="white"/>
<defs>
<linearGradient id="paint0_linear_4_20" x1="0" y1="4" x2="100" y2="104" gradientUnits="userSpaceOnUse">
<stop stop-color="#0029FF"/>
<stop offset="1" stop-color="#FF5C00"/>
</linearGradient>
<linearGradient id="paint1_linear_4_20" x1="32" y1="28.5" x2="69" y2="74.5" gradientUnits="userSpaceOnUse">
<stop stop-color="white"/>
<stop offset="1" stop-color="#373737"/>
</linearGradient>
</defs>
</svg>
